<svg width="120" height="120" viewBox="0 0 120 120" fill="none" xmlns="http://www.w3.org/2000/svg">
<circle cx="60" cy="60" r="60" fill="#4766EA"/>
<path d="M28.8633 81.6814C26.5164 81.6814 24.3398 81.6435 22.3336 81.5678C20.3273 81.4921 17.5829 81.3218 14.1004 81.0568V41.935H33.6329C36.3962 41.935 38.8756 42.3325 41.0711 43.1274C43.3045 43.8845 45.0458 44.9822 46.2949 46.4207C47.5441 47.8591 48.1687 49.5247 48.1687 51.4174C48.1687 53.7643 47.6577 55.6191 46.6356 56.9819C45.6136 58.3067 44.0616 59.2341 41.9796 59.7641C47.2791 60.5969 49.9289 63.7198 49.9289 69.1329C49.9289 72.8804 48.2066 75.9087 44.7619 78.2178C41.355 80.5268 36.0555 81.6814 28.8633 81.6814ZM31.2481 57.3793C32.7244 57.3793 33.9357 57.0197 34.8821 56.3005C35.8663 55.5813 36.3584 54.6539 36.3584 53.5182C36.3584 50.8306 34.6928 49.4868 31.3617 49.4868H26.7625V57.3793H31.2481ZM31.021 72.7668C33.1029 72.7668 34.6928 72.3883 35.7906 71.6312C36.9262 70.8363 37.494 69.7385 37.494 68.338C37.494 66.8238 36.9829 65.6693 35.9609 64.8743C34.9389 64.0416 33.4815 63.6252 31.5888 63.6252H26.7057V72.5965C28.4091 72.71 29.8475 72.7668 31.021 72.7668ZM67.1165 81.9085C61.7792 81.9085 57.2746 80.9243 53.6028 78.9559L56.4418 70.1549C60.3407 71.5555 63.8233 72.2558 66.8894 72.2558C68.555 72.2558 69.7663 72.0665 70.5234 71.688C71.3183 71.2716 71.7158 70.666 71.7158 69.871C71.7158 69.3411 71.5076 68.8868 71.0912 68.5083C70.6748 68.0919 69.842 67.6377 68.5928 67.1456C67.3437 66.6535 65.4699 66.0478 62.9716 65.3286C59.9054 64.4201 57.5206 62.9438 55.8172 60.8997C54.1138 58.8178 53.2621 56.433 53.2621 53.7454C53.2621 49.5815 54.6248 46.4396 57.3503 44.3198C60.1136 42.1621 63.8233 41.0833 68.4793 41.0833C70.9019 41.0833 73.2867 41.3483 75.6336 41.8782C77.9805 42.3703 80.0625 43.1085 81.8795 44.0927L78.8133 52.6665C76.6935 51.9473 74.8387 51.4363 73.2488 51.1335C71.6968 50.7928 70.1827 50.6224 68.7064 50.6224C66.208 50.6224 64.9589 51.3038 64.9589 52.6665C64.9589 53.3479 65.3563 53.9346 66.1513 54.4267C66.984 54.881 68.6685 55.4677 71.2047 56.1869C75.1794 57.2468 78.1887 58.8745 80.2328 61.07C82.2769 63.2277 83.299 65.8207 83.299 68.849C83.299 73.0507 81.9362 76.2872 79.2108 78.5584C76.4853 80.7918 72.4539 81.9085 67.1165 81.9085ZM106.294 35.688L93.2381 89.4H87.8621L100.87 35.688H106.294Z" fill="#FAFAFB"/>
</svg>
